/* XPM */
static char * bullet_xpm[] = {
"16 16 3 1",
" 	c None",
".	c #0F0F0F",
"+	c #284285",
"                ",
"                ",
"                ",
"     .. ++      ",
"                ",
"       .. ++    ",
"                ",
"         .. ++  ",
"          .. ++ ",
"         .. ++  ",
"                ",
"       .. ++    ",
"                ",
"     .. ++      ",
"                ",
"                "};
