/* XPM */
static char * selected_xpm[] = {
"16 16 3 1",
" 	c None",
".	c #284285",
"+	c #000000",
"                ",
"                ",
"              . ",
"             .. ",
"    .       ... ",
"    ..     .... ",
"   +...   ....  ",
"   +.... ....+  ",
"   ++.......+   ",
"   +++.....+    ",
"    +++...+     ",
"     +++.+      ",
"      +++       ",
"       +        ",
"                ",
"                "};
